<?xml version="1.0" encoding="UTF-8" standalone="no"?>
<svg
   xmlns:dc="http://purl.org/dc/elements/1.1/"
   xmlns:cc="http://creativecommons.org/ns#"
   xmlns:rdf="http://www.w3.org/1999/02/22-rdf-syntax-ns#"
   xmlns:svg="http://www.w3.org/2000/svg"
   xmlns="http://www.w3.org/2000/svg"
   xmlns:sodipodi="http://sodipodi.sourceforge.net/DTD/sodipodi-0.dtd"
   xmlns:inkscape="http://www.inkscape.org/namespaces/inkscape"
   width="200mm"
   height="200mm"
   viewBox="0 0 40000.001 39999.999"
   version="1.1"
   id="svg8"
   inkscape:version="1.0.2-2 (e86c870879, 2021-01-15)"
   sodipodi:docname="logout_icon.svg">
  <defs
     id="defs2" />
  <sodipodi:namedview
     id="base"
     pagecolor="#ffffff"
     bordercolor="#666666"
     borderopacity="1.0"
     inkscape:pageopacity="0.0"
     inkscape:pageshadow="2"
     inkscape:zoom="0.66347774"
     inkscape:cx="520.31165"
     inkscape:cy="540.13925"
     inkscape:document-units="mm"
     inkscape:current-layer="layer1"
     inkscape:document-rotation="0"
     showgrid="false"
     units="mm"
     width="200mm"
     inkscape:window-width="1920"
     inkscape:window-height="1017"
     inkscape:window-x="-8"
     inkscape:window-y="-8"
     inkscape:window-maximized="1" />
  <metadata
     id="metadata5">
    <rdf:RDF>
      <cc:Work
         rdf:about="">
        <dc:format>image/svg+xml</dc:format>
        <dc:type
           rdf:resource="http://purl.org/dc/dcmitype/StillImage" />
        <dc:title />
      </cc:Work>
    </rdf:RDF>
  </metadata>
  <g
     inkscape:label="Warstwa 1"
     inkscape:groupmode="layer"
     id="layer1">
    <g
       id="g850"
       transform="matrix(1.1058387,0,0,1.0779071,-2116.7946,-1052.9963)">
      <path
         id="path832"
         style="fill:#000000;stroke-width:171.059;stroke-linecap:square"
         d="M 294.15234,46.605469 A 341.77973,341.77973 0 0 0 36.173828,377.95312 341.77973,341.77973 0 0 0 377.95312,719.73242 341.77973,341.77973 0 0 0 719.73242,377.95312 341.77973,341.77973 0 0 0 461.75391,46.607422 94.48819,262.25446 0 0 1 472.35352,156.43164 240.79669,240.79669 0 0 1 618.75,377.95312 240.79669,240.79669 0 0 1 377.95312,618.75 240.79669,240.79669 0 0 1 137.15625,377.95312 240.79669,240.79669 0 0 1 283.55273,156.43359 94.48819,262.25446 0 0 1 294.15234,46.605469 Z"
         transform="scale(52.916666)" />
      <ellipse
         style="fill:#000000;stroke-width:2756.16;stroke-linecap:square"
         id="ellipse845"
         cx="20000"
         cy="8877.6318"
         rx="2846.5742"
         ry="7900.7422" />
    </g>
  </g>
</svg>
