<?xml version="1.0" encoding="UTF-8" standalone="no"?>
<svg
   xmlns:dc="http://purl.org/dc/elements/1.1/"
   xmlns:cc="http://creativecommons.org/ns#"
   xmlns:rdf="http://www.w3.org/1999/02/22-rdf-syntax-ns#"
   xmlns:svg="http://www.w3.org/2000/svg"
   xmlns="http://www.w3.org/2000/svg"
   xmlns:sodipodi="http://sodipodi.sourceforge.net/DTD/sodipodi-0.dtd"
   xmlns:inkscape="http://www.inkscape.org/namespaces/inkscape"
   width="192"
   height="200"
   viewBox="0 0 50.800001 52.916666"
   version="1.1"
   id="svg8"
   inkscape:version="1.0.2-2 (e86c870879, 2021-01-15)"
   sodipodi:docname="movie_backgorund_icon.svg">
  <defs
     id="defs2">
    <marker
       style="overflow:visible"
       id="marker1156"
       refX="0"
       refY="0"
       orient="auto"
       inkscape:stockid="Arrow1Lstart"
       inkscape:isstock="true">
      <path
         transform="matrix(0.8,0,0,0.8,10,0)"
         style="fill-rule:evenodd;stroke:#000000;stroke-width:1pt"
         d="M 0,0 5,-5 -12.5,0 5,5 Z"
         id="path1154" />
    </marker>
    <marker
       style="overflow:visible"
       id="Arrow1Lstart"
       refX="0"
       refY="0"
       orient="auto"
       inkscape:stockid="Arrow1Lstart"
       inkscape:isstock="true">
      <path
         transform="matrix(0.8,0,0,0.8,10,0)"
         style="fill-rule:evenodd;stroke:#000000;stroke-width:1pt"
         d="M 0,0 5,-5 -12.5,0 5,5 Z"
         id="path884" />
    </marker>
  </defs>
  <sodipodi:namedview
     id="base"
     pagecolor="#ffffff"
     bordercolor="#666666"
     borderopacity="1.0"
     inkscape:pageopacity="0.0"
     inkscape:pageshadow="2"
     inkscape:zoom="3.8551137"
     inkscape:cx="101.71954"
     inkscape:cy="104.69146"
     inkscape:document-units="px"
     inkscape:current-layer="layer1"
     inkscape:document-rotation="0"
     showgrid="false"
     units="px"
     inkscape:window-width="1920"
     inkscape:window-height="1017"
     inkscape:window-x="-8"
     inkscape:window-y="-8"
     inkscape:window-maximized="1" />
  <metadata
     id="metadata5">
    <rdf:RDF>
      <cc:Work
         rdf:about="">
        <dc:format>image/svg+xml</dc:format>
        <dc:type
           rdf:resource="http://purl.org/dc/dcmitype/StillImage" />
        <dc:title></dc:title>
      </cc:Work>
    </rdf:RDF>
  </metadata>
  <g
     inkscape:label="Warstwa 1"
     inkscape:groupmode="layer"
     id="layer1">
    <path
       id="rect880"
       style="fill:#000000;stroke-width:35.0631;stroke-linecap:square"
       d="M 0,0 V 52.916668 H 50.799999 V 0 Z m 1.4996501,1.0583333 h 3.3506997 c 0.537591,0 0.9704833,0.4328923 0.9704833,0.9704834 v 3.3506998 c 0,0.5375909 -0.4328923,0.9704834 -0.9704833,0.9704834 H 1.4996501 c -0.5375913,0 -0.9704835,-0.4328925 -0.9704835,-0.9704834 V 2.0288167 c 0,-0.5375911 0.4328923,-0.9704834 0.9704835,-0.9704834 z m 6.35,0 H 11.20035 c 0.537592,0 0.970483,0.4328923 0.970483,0.9704834 v 3.3506998 c 0,0.5375909 -0.432891,0.9704834 -0.970483,0.9704834 H 7.8496501 c -0.537591,0 -0.970484,-0.4328925 -0.970484,-0.9704834 V 2.0288167 c 0,-0.5375911 0.432893,-0.9704834 0.970484,-0.9704834 z m 6.3499999,0 h 3.3507 c 0.537591,0 0.970483,0.4328923 0.970483,0.9704834 v 3.3506998 c 0,0.5375909 -0.432892,0.9704834 -0.970483,0.9704834 h -3.3507 c -0.537591,0 -0.970483,-0.4328925 -0.970483,-0.9704834 V 2.0288167 c 0,-0.5375911 0.432892,-0.9704834 0.970483,-0.9704834 z m 6.35,0 h 3.3507 c 0.537591,0 0.970483,0.4328923 0.970483,0.9704834 v 3.3506998 c 0,0.5375909 -0.432892,0.9704834 -0.970483,0.9704834 h -3.3507 c -0.537591,0 -0.970484,-0.4328925 -0.970484,-0.9704834 V 2.0288167 c 0,-0.5375911 0.432893,-0.9704834 0.970484,-0.9704834 z m 6.35,0 h 3.350699 c 0.537591,0 0.970484,0.4328923 0.970484,0.9704834 v 3.3506998 c 0,0.5375909 -0.432893,0.9704834 -0.970484,0.9704834 H 26.89965 c -0.537591,0 -0.970484,-0.4328925 -0.970484,-0.9704834 V 2.0288167 c 0,-0.5375911 0.432893,-0.9704834 0.970484,-0.9704834 z m 6.35,0 h 3.350699 c 0.537591,0 0.970484,0.4328923 0.970484,0.9704834 v 3.3506998 c 0,0.5375909 -0.432893,0.9704834 -0.970484,0.9704834 H 33.24965 c -0.537594,0 -0.970484,-0.4328925 -0.970484,-0.9704834 V 2.0288167 c 0,-0.5375911 0.43289,-0.9704834 0.970484,-0.9704834 z m 6.35,0 h 3.350699 c 0.537594,0 0.970484,0.4328923 0.970484,0.9704834 v 3.3506998 c 0,0.5375909 -0.43289,0.9704834 -0.970484,0.9704834 H 39.59965 c -0.537591,0 -0.970484,-0.4328925 -0.970484,-0.9704834 V 2.0288167 c 0,-0.5375911 0.432893,-0.9704834 0.970484,-0.9704834 z m 6.35,0 h 3.350699 c 0.537591,0 0.970484,0.4328923 0.970484,0.9704834 v 3.3506998 c 0,0.5375909 -0.432893,0.9704834 -0.970484,0.9704834 H 45.94965 c -0.537591,0 -0.970484,-0.4328925 -0.970484,-0.9704834 V 2.0288167 c 0,-0.5375911 0.432893,-0.9704834 0.970484,-0.9704834 z M 1.4996501,46.566668 h 3.3506997 c 0.537591,0 0.9704833,0.43289 0.9704833,0.970481 v 3.350702 c 0,0.537591 -0.4328923,0.970481 -0.9704833,0.970483 H 1.4996501 c -0.5375913,0 -0.9704835,-0.432892 -0.9704835,-0.970483 v -3.350702 c 0,-0.537591 0.4328923,-0.970484 0.9704835,-0.970481 z m 6.35,0 H 11.20035 c 0.537592,0 0.970483,0.43289 0.970483,0.970481 v 3.350702 c 0,0.537591 -0.432891,0.970481 -0.970483,0.970483 H 7.8496501 c -0.537591,0 -0.970484,-0.432892 -0.970484,-0.970483 v -3.350702 c 0,-0.537591 0.432893,-0.970484 0.970484,-0.970481 z m 6.3499999,0 h 3.3507 c 0.537591,0 0.970483,0.43289 0.970483,0.970481 v 3.350702 c 0,0.537591 -0.432892,0.970481 -0.970483,0.970483 h -3.3507 c -0.537591,0 -0.970483,-0.432892 -0.970483,-0.970483 v -3.350702 c 0,-0.537591 0.432892,-0.970484 0.970483,-0.970481 z m 6.35,0 h 3.3507 c 0.537591,0 0.970483,0.43289 0.970483,0.970481 v 3.350702 c 0,0.537591 -0.432892,0.970481 -0.970483,0.970483 h -3.3507 c -0.537591,0 -0.970484,-0.432892 -0.970484,-0.970483 v -3.350702 c 0,-0.537591 0.432893,-0.970484 0.970484,-0.970481 z m 6.35,0 h 3.350699 c 0.537591,0 0.970484,0.43289 0.970484,0.970481 v 3.350702 c 0,0.537591 -0.432893,0.970481 -0.970484,0.970483 H 26.89965 c -0.537591,0 -0.970484,-0.432892 -0.970484,-0.970483 v -3.350702 c 0,-0.537591 0.432893,-0.970484 0.970484,-0.970481 z m 6.35,0 h 3.350699 c 0.537591,0 0.970484,0.43289 0.970484,0.970481 v 3.350702 c 0,0.537591 -0.432893,0.970481 -0.970484,0.970483 H 33.24965 c -0.537594,0 -0.970484,-0.432892 -0.970484,-0.970483 v -3.350702 c 0,-0.537591 0.43289,-0.970484 0.970484,-0.970481 z m 6.35,0 h 3.350699 c 0.537594,0 0.970484,0.43289 0.970484,0.970481 v 3.350702 c 0,0.537591 -0.43289,0.970481 -0.970484,0.970483 H 39.59965 c -0.537591,0 -0.970484,-0.432892 -0.970484,-0.970483 v -3.350702 c 0,-0.537591 0.432893,-0.970484 0.970484,-0.970481 z m 6.35,0 h 3.350699 c 0.537591,0 0.970484,0.43289 0.970484,0.970481 v 3.350702 c 0,0.537591 -0.432893,0.970481 -0.970484,0.970483 H 45.94965 c -0.537591,0 -0.970484,-0.432892 -0.970484,-0.970483 v -3.350702 c 0,-0.537591 0.432893,-0.970484 0.970484,-0.970481 z" />
  </g>
</svg>
