<?xml version="1.0" encoding="UTF-8" standalone="no"?>
<svg
   xmlns:dc="http://purl.org/dc/elements/1.1/"
   xmlns:cc="http://creativecommons.org/ns#"
   xmlns:rdf="http://www.w3.org/1999/02/22-rdf-syntax-ns#"
   xmlns:svg="http://www.w3.org/2000/svg"
   xmlns="http://www.w3.org/2000/svg"
   xmlns:sodipodi="http://sodipodi.sourceforge.net/DTD/sodipodi-0.dtd"
   xmlns:inkscape="http://www.inkscape.org/namespaces/inkscape"
   width="200"
   height="200"
   viewBox="0 0 52.916666 52.916666"
   version="1.1"
   id="svg8"
   inkscape:version="1.0.2-2 (e86c870879, 2021-01-15)"
   sodipodi:docname="movie_icon.svg">
  <defs
     id="defs2">
    <marker
       style="overflow:visible"
       id="marker1156"
       refX="0.0"
       refY="0.0"
       orient="auto"
       inkscape:stockid="Arrow1Lstart"
       inkscape:isstock="true">
      <path
         transform="scale(0.8) translate(12.5,0)"
         style="fill-rule:evenodd;stroke:#000000;stroke-width:1.0pt"
         d="M 0.0,0.0 L 5.0,-5.0 L -12.5,0.0 L 5.0,5.0 L 0.0,0.0 z "
         id="path1154" />
    </marker>
    <marker
       style="overflow:visible"
       id="Arrow1Lstart"
       refX="0.0"
       refY="0.0"
       orient="auto"
       inkscape:stockid="Arrow1Lstart"
       inkscape:isstock="true">
      <path
         transform="scale(0.8) translate(12.5,0)"
         style="fill-rule:evenodd;stroke:#000000;stroke-width:1.0pt"
         d="M 0.0,0.0 L 5.0,-5.0 L -12.5,0.0 L 5.0,5.0 L 0.0,0.0 z "
         id="path884" />
    </marker>
  </defs>
  <sodipodi:namedview
     id="base"
     pagecolor="#ffffff"
     bordercolor="#666666"
     borderopacity="1.0"
     inkscape:pageopacity="0.0"
     inkscape:pageshadow="2"
     inkscape:zoom="2.725977"
     inkscape:cx="135.83459"
     inkscape:cy="83.314339"
     inkscape:document-units="px"
     inkscape:current-layer="layer1"
     inkscape:document-rotation="0"
     showgrid="false"
     units="px"
     inkscape:window-width="1920"
     inkscape:window-height="1017"
     inkscape:window-x="-8"
     inkscape:window-y="-8"
     inkscape:window-maximized="1" />
  <metadata
     id="metadata5">
    <rdf:RDF>
      <cc:Work
         rdf:about="">
        <dc:format>image/svg+xml</dc:format>
        <dc:type
           rdf:resource="http://purl.org/dc/dcmitype/StillImage" />
        <dc:title></dc:title>
      </cc:Work>
    </rdf:RDF>
  </metadata>
  <g
     inkscape:label="Warstwa 1"
     inkscape:groupmode="layer"
     id="layer1">
    <path
       id="rect880"
       style="fill:#000000;stroke-width:132.522;stroke-linecap:square"
       d="m 0,0 v 47.689453 h 9.015625 c 8.129196,0 14.673828,6.544633 14.673828,14.673828 v 75.273439 c 0,8.12919 -6.544632,14.67383 -14.673828,14.67383 H 0 V 200 h 200 v -47.68945 h -9.01562 c -8.1292,0 -14.67383,-6.54464 -14.67383,-14.67383 V 62.363281 c 0,-8.129195 6.54463,-14.673828 14.67383,-14.673828 H 200 V 0 Z M 9.6679688,4 H 22.332031 C 24.363871,4 26,5.6361283 26,7.6679688 V 20.332031 C 26,22.363871 24.363871,24 22.332031,24 H 9.6679688 C 7.6361283,24 6,22.363871 6,20.332031 V 7.6679688 C 6,5.6361283 7.6361283,4 9.6679688,4 Z M 33.667969,4 H 46.332031 C 48.363875,4 50,5.6361283 50,7.6679688 V 20.332031 C 50,22.363871 48.363875,24 46.332031,24 H 33.667969 C 31.636128,24 30,22.363871 30,20.332031 V 7.6679688 C 30,5.6361283 31.636128,4 33.667969,4 Z m 24,0 H 70.332031 C 72.363871,4 74,5.6361283 74,7.6679688 V 20.332031 C 74,22.363871 72.363871,24 70.332031,24 H 57.667969 C 55.636129,24 54,22.363871 54,20.332031 V 7.6679688 C 54,5.6361283 55.636129,4 57.667969,4 Z m 24,0 H 94.332031 C 96.363871,4 98,5.6361283 98,7.6679688 V 20.332031 C 98,22.363871 96.363871,24 94.332031,24 H 81.667969 C 79.636129,24 78,22.363871 78,20.332031 V 7.6679688 C 78,5.6361283 79.636129,4 81.667969,4 Z m 24.000001,0 h 12.66406 C 120.36387,4 122,5.6361283 122,7.6679688 V 20.332031 C 122,22.363871 120.36387,24 118.33203,24 H 105.66797 C 103.63613,24 102,22.363871 102,20.332031 V 7.6679688 C 102,5.6361283 103.63613,4 105.66797,4 Z m 24,0 h 12.66406 C 144.36387,4 146,5.6361283 146,7.6679688 V 20.332031 C 146,22.363871 144.36387,24 142.33203,24 H 129.66797 C 127.63612,24 126,22.363871 126,20.332031 V 7.6679688 C 126,5.6361283 127.63612,4 129.66797,4 Z m 24,0 h 12.66406 C 168.36388,4 170,5.6361283 170,7.6679688 V 20.332031 C 170,22.363871 168.36388,24 166.33203,24 H 153.66797 C 151.63613,24 150,22.363871 150,20.332031 V 7.6679688 C 150,5.6361283 151.63613,4 153.66797,4 Z m 24,0 h 12.66406 C 192.36387,4 194,5.6361283 194,7.6679688 V 20.332031 C 194,22.363871 192.36387,24 190.33203,24 H 177.66797 C 175.63613,24 174,22.363871 174,20.332031 V 7.6679688 C 174,5.6361283 175.63613,4 177.66797,4 Z M 62.363281,47.689453 h 75.273439 c 8.12919,0 14.67383,6.544633 14.67383,14.673828 v 75.273439 c 0,8.12919 -6.54464,14.67383 -14.67383,14.67383 H 62.363281 c -8.129195,0 -14.673828,-6.54464 -14.673828,-14.67383 V 62.363281 c 0,-8.129195 6.544633,-14.673828 14.673828,-14.673828 z M 9.6679688,176 H 22.332031 C 24.363871,176 26,177.63613 26,179.66797 v 12.66406 C 26,194.36387 24.363871,196 22.332031,196 H 9.6679688 C 7.6361283,196 6,194.36387 6,192.33203 V 179.66797 C 6,177.63613 7.6361283,176 9.6679688,176 Z m 24.0000002,0 H 46.332031 C 48.363875,176 50,177.63613 50,179.66797 v 12.66406 C 50,194.36387 48.363875,196 46.332031,196 H 33.667969 C 31.636128,196 30,194.36387 30,192.33203 V 179.66797 C 30,177.63613 31.636128,176 33.667969,176 Z m 24,0 H 70.332031 C 72.363871,176 74,177.63613 74,179.66797 v 12.66406 C 74,194.36387 72.363871,196 70.332031,196 H 57.667969 C 55.636129,196 54,194.36387 54,192.33203 V 179.66797 C 54,177.63613 55.636129,176 57.667969,176 Z m 24,0 H 94.332031 C 96.363871,176 98,177.63613 98,179.66797 v 12.66406 C 98,194.36387 96.363871,196 94.332031,196 H 81.667969 C 79.636129,196 78,194.36387 78,192.33203 V 179.66797 C 78,177.63613 79.636129,176 81.667969,176 Z m 24.000001,0 h 12.66406 c 2.03184,0 3.66797,1.63613 3.66797,3.66797 v 12.66406 C 122,194.36387 120.36387,196 118.33203,196 H 105.66797 C 103.63613,196 102,194.36387 102,192.33203 V 179.66797 C 102,177.63613 103.63613,176 105.66797,176 Z m 24,0 h 12.66406 c 2.03184,0 3.66797,1.63613 3.66797,3.66797 v 12.66406 C 146,194.36387 144.36387,196 142.33203,196 H 129.66797 C 127.63612,196 126,194.36387 126,192.33203 V 179.66797 C 126,177.63613 127.63612,176 129.66797,176 Z m 24,0 h 12.66406 c 2.03185,0 3.66797,1.63613 3.66797,3.66797 v 12.66406 C 170,194.36387 168.36388,196 166.33203,196 H 153.66797 C 151.63613,196 150,194.36387 150,192.33203 V 179.66797 C 150,177.63613 151.63613,176 153.66797,176 Z m 24,0 h 12.66406 c 2.03184,0 3.66797,1.63613 3.66797,3.66797 v 12.66406 C 194,194.36387 192.36387,196 190.33203,196 H 177.66797 C 175.63613,196 174,194.36387 174,192.33203 V 179.66797 C 174,177.63613 175.63613,176 177.66797,176 Z"
       transform="scale(0.26458333)" />
  </g>
</svg>
