<?xml version="1.0" encoding="UTF-8" standalone="no"?>
<svg
   xmlns:dc="http://purl.org/dc/elements/1.1/"
   xmlns:cc="http://creativecommons.org/ns#"
   xmlns:rdf="http://www.w3.org/1999/02/22-rdf-syntax-ns#"
   xmlns:svg="http://www.w3.org/2000/svg"
   xmlns="http://www.w3.org/2000/svg"
   xmlns:sodipodi="http://sodipodi.sourceforge.net/DTD/sodipodi-0.dtd"
   xmlns:inkscape="http://www.inkscape.org/namespaces/inkscape"
   width="200mm"
   height="200mm"
   viewBox="0 0 40000.001 39999.999"
   version="1.1"
   id="svg8"
   inkscape:version="1.0.2-2 (e86c870879, 2021-01-15)"
   sodipodi:docname="settings_icon.svg">
  <defs
     id="defs2" />
  <sodipodi:namedview
     id="base"
     pagecolor="#ffffff"
     bordercolor="#666666"
     borderopacity="1.0"
     inkscape:pageopacity="0.0"
     inkscape:pageshadow="2"
     inkscape:zoom="0.64593752"
     inkscape:cx="520.31165"
     inkscape:cy="292.43728"
     inkscape:document-units="mm"
     inkscape:current-layer="layer1"
     inkscape:document-rotation="0"
     showgrid="false"
     units="mm"
     width="200mm"
     inkscape:window-width="1920"
     inkscape:window-height="1017"
     inkscape:window-x="-8"
     inkscape:window-y="-8"
     inkscape:window-maximized="1" />
  <metadata
     id="metadata5">
    <rdf:RDF>
      <cc:Work
         rdf:about="">
        <dc:format>image/svg+xml</dc:format>
        <dc:type
           rdf:resource="http://purl.org/dc/dcmitype/StillImage" />
        <dc:title />
      </cc:Work>
    </rdf:RDF>
  </metadata>
  <g
     inkscape:label="Warstwa 1"
     inkscape:groupmode="layer"
     id="layer1">
    <path
       id="path842"
       style="fill:#000000;stroke-width:161.698;stroke-linecap:square"
       d="M 302.36133,7.6367188 A 377.95276,377.95276 0 0 0 169.55078,62.648438 L 217.60156,110.69922 110.69922,217.60156 62.650391,169.55078 A 377.95276,377.95276 0 0 0 7.6386719,302.36133 H 75.589844 V 453.54297 H 7.6367188 A 377.95276,377.95276 0 0 0 62.650391,586.35352 l 48.048829,-48.04883 106.90234,106.90039 -48.05078,48.05078 a 377.95276,377.95276 0 0 0 132.81055,55.01172 v -67.95313 h 151.18164 v 67.95508 a 377.95276,377.95276 0 0 0 132.8125,-55.01367 l -48.05078,-48.05078 106.90039,-106.90039 48.05078,48.05078 a 377.95276,377.95276 0 0 0 55.01367,-132.8125 H 680.31445 V 302.36133 h 67.95508 A 377.95276,377.95276 0 0 0 693.25586,169.55078 L 645.20508,217.60156 538.30469,110.69922 586.35547,62.648438 A 377.95276,377.95276 0 0 0 453.54297,7.6367188 V 75.589844 H 302.36133 Z M 377.95312,212.25 A 165.7025,165.7025 0 0 1 543.6543,377.95312 165.7025,165.7025 0 0 1 377.95312,543.6543 165.7025,165.7025 0 0 1 212.25,377.95312 165.7025,165.7025 0 0 1 377.95312,212.25 Z"
       transform="scale(52.916666)" />
  </g>
</svg>
